<svg xmlns="http://www.w3.org/2000/svg"  viewBox="0 0 24 24" width="48px" height="48px" baseProfile="basic"><path d="M12,1C5.935,1,1,5.71,1,11.5S5.935,22,12,22c2.219,0,4.231-0.651,4.231-0.651l-4.244-4.334	C9.035,16.897,7,14.359,7,11.5C7,8.468,9.243,6,12,6s5.163,2.491,4.983,5.971l4.693,4.749c0,0,1.323-2.287,1.323-5.22	C23,5.71,18.065,1,12,1z" opacity=".3"/><polyline points="13,13 13,15.912 14.5,17.448 14.5,14.5 17.368,14.5 15.888,13 13,13" opacity=".3"/><polygon points="17.368,14.5 14.5,14.5 14.5,17.448 19.946,23 23,23 23,20.195"/><polygon points="13,13 15.888,13 13.915,11 11,11 11,13.864 13,15.912"/><path d="M11.995,3c3.29,0.019,6.204,1.621,7.795,4.286c1.063,1.781,1.422,3.786,1.073,5.765l-1.879-1.901	c-0.28-4.666-3.687-7.104-6.988-7.104c-3.364,0-6.847,2.539-6.996,7.393L5,11.469V11.5c0,3.759,2.654,6.919,6.074,7.44l1.024,1.046	C7.633,19.937,3.1,17.013,3,11.5C3,6.815,7.035,3.003,11.995,3 M12,1C5.935,1,1,5.71,1,11.5c0.115,6.369,5.303,10.487,11.21,10.487	c1.321,0,2.677-0.206,4.021-0.638l-4.244-4.334C9.222,16.966,7,14.512,7,11.5c0.111-3.635,2.554-5.454,4.997-5.454	c2.451,0,4.903,1.83,5.003,5.492l-0.017,0.433l4.693,4.749C25.538,9.467,20.421,1.045,12,1L12,1z"/></svg>