<?xml version="1.0" encoding="UTF-8"?>
<svg version="1.1" xmlns="http://www.w3.org/2000/svg" width="500" height="500">
<path d="M0 0 C1.28197266 0.10054688 1.28197266 0.10054688 2.58984375 0.203125 C5.43175629 0.83166806 6.948867 1.76877557 9.0625 3.75 C9.0625 4.41 9.0625 5.07 9.0625 5.75 C10.7125 6.41 12.3625 7.07 14.0625 7.75 C14.0625 8.41 14.0625 9.07 14.0625 9.75 C14.7225 9.75 15.3825 9.75 16.0625 9.75 C16.0625 10.41 16.0625 11.07 16.0625 11.75 C16.59875 11.9975 17.135 12.245 17.6875 12.5 C20.6448982 14.05652537 23.35974051 15.78435673 26.0625 17.75 C26.0625 18.41 26.0625 19.07 26.0625 19.75 C26.85333984 20.07677734 26.85333984 20.07677734 27.66015625 20.41015625 C30.96204109 22.25169528 33.67070663 24.70742227 36.5 27.1875 C39.56543038 29.87195629 42.4561022 32.39104506 45.97265625 34.47265625 C46.66230469 34.89417969 47.35195313 35.31570312 48.0625 35.75 C48.0625 36.41 48.0625 37.07 48.0625 37.75 C48.7225 37.75 49.3825 37.75 50.0625 37.75 C50.0625 38.41 50.0625 39.07 50.0625 39.75 C51.7125 40.41 53.3625 41.07 55.0625 41.75 C55.0625 42.41 55.0625 43.07 55.0625 43.75 C56.3825 44.08 57.7025 44.41 59.0625 44.75 C59.0625 45.41 59.0625 46.07 59.0625 46.75 C59.7225 46.75 60.3825 46.75 61.0625 46.75 C61.0625 47.41 61.0625 48.07 61.0625 48.75 C61.784375 48.9975 62.50625 49.245 63.25 49.5 C66.33856582 50.87269592 68.57261418 52.47353296 71.0625 54.75 C71.0625 55.41 71.0625 56.07 71.0625 56.75 C71.63484375 57.018125 72.2071875 57.28625 72.796875 57.5625 C75.14134634 58.79132636 77.18654938 60.17522176 79.3125 61.75 C80.01890625 62.265625 80.7253125 62.78125 81.453125 63.3125 C81.98421875 63.786875 82.5153125 64.26125 83.0625 64.75 C83.0625 65.41 83.0625 66.07 83.0625 66.75 C83.866875 67.12125 83.866875 67.12125 84.6875 67.5 C87.6448982 69.05652537 90.35974051 70.78435673 93.0625 72.75 C93.0625 73.41 93.0625 74.07 93.0625 74.75 C94.7125 75.41 96.3625 76.07 98.0625 76.75 C98.0625 77.41 98.0625 78.07 98.0625 78.75 C98.7225 78.75 99.3825 78.75 100.0625 78.75 C100.0625 79.41 100.0625 80.07 100.0625 80.75 C100.78824219 81.0078125 101.51398438 81.265625 102.26171875 81.53125 C105.18297667 82.80242499 107.37122649 84.29016402 109.875 86.25 C110.66519531 86.8584375 111.45539063 87.466875 112.26953125 88.09375 C112.86121094 88.6403125 113.45289063 89.186875 114.0625 89.75 C114.0625 90.41 114.0625 91.07 114.0625 91.75 C114.64 91.9975 115.2175 92.245 115.8125 92.5 C119.52170347 94.5606686 121.57921104 96.53427262 123.16252136 100.51713562 C124.73967641 106.4640352 124.3495003 112.68332689 124.3371582 118.78833008 C124.34151033 120.21154547 124.34669515 121.63475853 124.35264587 123.05796814 C124.36599508 126.90936848 124.36661898 130.76067044 124.36408257 134.6120894 C124.36300983 137.83497675 124.36790412 141.05784444 124.372688 144.28072757 C124.38376965 151.8893966 124.38422852 159.49801626 124.37817383 167.10668945 C124.37213812 174.93709996 124.38443784 182.7673306 124.4057439 190.59771043 C124.42340155 197.33681719 124.4293546 204.07586692 124.42610615 210.81499594 C124.42429936 214.83273092 124.42686856 218.85033765 124.44082069 222.86805153 C124.45346199 226.64958393 124.45139595 230.43083763 124.43840981 234.2123661 C124.4349436 236.24765383 124.44617614 238.28295032 124.45797729 240.31820679 C124.39498569 251.38297897 122.90320513 260.53511805 115.0625 268.75 C107.55659037 275.68168704 100.9794847 278.05984008 90.69523621 278.01742554 C89.87960042 278.02195665 89.06396463 278.02648776 88.22361261 278.03115618 C85.50472951 278.04376384 82.78604767 278.04218217 80.06713867 278.04052734 C78.11191044 278.04651485 76.15668457 278.05332091 74.20146179 278.06088257 C68.89970838 278.07852685 63.59801955 278.08323728 58.29623961 278.08451414 C54.98126732 278.08593716 51.66631138 278.09020961 48.35134315 278.09550858 C36.77905868 278.11400347 25.20682025 278.12217984 13.63452148 278.12060547 C2.85939248 278.11940414 -7.9155362 278.14050632 -18.69061452 278.1720928 C-27.95199136 278.19827134 -37.21330283 278.2089721 -46.47471637 278.20769465 C-52.00153983 278.2071855 -57.52818519 278.21284318 -63.05497169 278.23405075 C-68.25482219 278.25345969 -73.45432517 278.25353932 -78.65418816 278.23901749 C-80.55765416 278.23693162 -82.46114207 278.24161699 -84.36457062 278.2537384 C-95.48984931 278.3199724 -104.39098214 278.11434524 -113.9375 271.75 C-113.9375 271.09 -113.9375 270.43 -113.9375 269.75 C-115.2575 269.09 -116.5775 268.43 -117.9375 267.75 C-117.9375 267.09 -117.9375 266.43 -117.9375 265.75 C-118.5975 265.75 -119.2575 265.75 -119.9375 265.75 C-120.58584654 264.480447 -121.23107815 263.20930294 -121.875 261.9375 C-122.23464844 261.22980469 -122.59429687 260.52210938 -122.96484375 259.79296875 C-124.8295644 255.87630649 -125.06487049 252.82742797 -125.07121277 248.53175354 C-125.07547775 247.22921631 -125.07974274 245.92667908 -125.08413696 244.58467102 C-125.08378744 243.13790891 -125.0833259 241.69114681 -125.08276367 240.24438477 C-125.08575526 238.72335731 -125.08915779 237.20233062 -125.09294128 235.68130493 C-125.10178501 231.54704428 -125.10411954 227.41280432 -125.10475707 223.27853513 C-125.10570595 219.82912379 -125.10938397 216.37971729 -125.11292917 212.93030781 C-125.12107497 204.79362394 -125.12351327 196.65695114 -125.12280273 188.52026367 C-125.12220173 180.12182338 -125.13275768 171.72344728 -125.1485464 163.32502323 C-125.16161311 156.11816275 -125.16698701 148.91132327 -125.16634732 141.70445102 C-125.1660921 137.39847524 -125.16895666 133.09255649 -125.17952538 128.78659248 C-125.18919187 124.73761714 -125.18929553 120.68875355 -125.18200874 116.63977432 C-125.18096113 115.15305989 -125.18333625 113.66633856 -125.1893692 112.179636 C-125.1970667 110.15151472 -125.19125511 108.12335552 -125.18473816 106.0952301 C-125.18528293 104.95979043 -125.18582769 103.82435076 -125.18638897 102.65450382 C-124.94280847 99.81194916 -124.41569405 98.15737012 -122.9375 95.75 C-122.2775 95.75 -121.6175 95.75 -120.9375 95.75 C-120.9375 95.09 -120.9375 94.43 -120.9375 93.75 C-118.4625 92.76 -118.4625 92.76 -115.9375 91.75 C-115.9375 91.09 -115.9375 90.43 -115.9375 89.75 C-114.01162421 88.11860063 -112.09423283 86.61276775 -110.0625 85.125 C-109.50691406 84.70476562 -108.95132813 84.28453125 -108.37890625 83.8515625 C-104.19985288 80.75 -104.19985288 80.75 -101.9375 80.75 C-101.69128906 80.15960938 -101.44507813 79.56921875 -101.19140625 78.9609375 C-99.72374108 76.37309174 -98.24371338 75.17083415 -95.875 73.375 C-92.38533228 70.6796032 -88.94993069 67.94540345 -85.56640625 65.1171875 C-84.80400635 64.48087402 -84.04160645 63.84456055 -83.25610352 63.18896484 C-81.71879988 61.90337303 -80.18409631 60.61466524 -78.65209961 59.32275391 C-77.94190674 58.73155762 -77.23171387 58.14036133 -76.5 57.53125 C-75.54287109 56.7278418 -75.54287109 56.7278418 -74.56640625 55.90820312 C-72.9375 54.75 -72.9375 54.75 -70.9375 54.75 C-70.9375 54.09 -70.9375 53.43 -70.9375 52.75 C-69.2578125 51.2421875 -69.2578125 51.2421875 -67.0625 49.625 C-66.34320313 49.08617187 -65.62390625 48.54734375 -64.8828125 47.9921875 C-62.9375 46.75 -62.9375 46.75 -60.9375 46.75 C-60.9375 46.09 -60.9375 45.43 -60.9375 44.75 C-59.0390625 43.0234375 -59.0390625 43.0234375 -56.5625 41.125 C-55.75039062 40.49335938 -54.93828125 39.86171875 -54.1015625 39.2109375 C-51.9375 37.75 -51.9375 37.75 -49.9375 37.75 C-49.9375 37.09 -49.9375 36.43 -49.9375 35.75 C-49.2775 35.75 -48.6175 35.75 -47.9375 35.75 C-47.9375 35.09 -47.9375 34.43 -47.9375 33.75 C-46.42578125 32.41015625 -46.42578125 32.41015625 -44.25 30.8125 C-39.41148637 27.17591014 -34.83211389 23.29235892 -30.28051758 19.30688477 C-26.15413335 15.75 -26.15413335 15.75 -23.9375 15.75 C-23.9375 15.09 -23.9375 14.43 -23.9375 13.75 C-22.44893934 12.41735577 -20.89446355 11.15780521 -19.3125 9.9375 C-16.32416283 7.61276811 -13.36232447 5.29076574 -10.5 2.8125 C-6.87018071 -0.10906186 -4.49695402 -0.40574021 0 0 Z M-2.9375 21.75 C-2.9375 22.41 -2.9375 23.07 -2.9375 23.75 C-3.46859375 23.9871875 -3.9996875 24.224375 -4.546875 24.46875 C-7.63492595 26.12378384 -10.3903472 28.15548128 -13.1875 30.25 C-13.74179688 30.65347656 -14.29609375 31.05695313 -14.8671875 31.47265625 C-16.26319165 32.51450171 -17.60552392 33.62745412 -18.9375 34.75 C-18.9375 35.41 -18.9375 36.07 -18.9375 36.75 C-19.47375 36.9975 -20.01 37.245 -20.5625 37.5 C-24.57524571 39.61197143 -28.09780859 41.91030859 -31.3125 45.125 C-34.12749231 47.93999231 -37.11096695 50.13954524 -40.36328125 52.41796875 C-40.88277344 52.85753906 -41.40226562 53.29710937 -41.9375 53.75 C-41.9375 54.41 -41.9375 55.07 -41.9375 55.75 C-43.9375 56.75 -45.9375 57.75 -47.9375 58.75 C-47.9375 59.41 -47.9375 60.07 -47.9375 60.75 C-49.5875 61.41 -51.2375 62.07 -52.9375 62.75 C-52.9375 63.41 -52.9375 64.07 -52.9375 64.75 C-53.45828125 64.97171875 -53.9790625 65.1934375 -54.515625 65.421875 C-57.8564806 67.2539571 -60.72766829 69.62112536 -63.6875 72 C-67.67808948 75.18280939 -71.67329934 78.3230773 -75.8125 81.3125 C-76.84375 82.116875 -77.875 82.92125 -78.9375 83.75 C-78.9375 84.41 -78.9375 85.07 -78.9375 85.75 C-79.453125 85.96785156 -79.96875 86.18570313 -80.5 86.41015625 C-83.94358969 88.30302686 -86.87837416 90.7331595 -89.9375 93.1875 C-91.16638267 94.16572146 -92.395542 95.14359549 -93.625 96.12109375 C-94.19734375 96.57983887 -94.7696875 97.03858398 -95.359375 97.51123047 C-96.66763551 98.5381664 -98.01678458 99.51276362 -99.375 100.47265625 C-100.1484375 101.10494141 -100.1484375 101.10494141 -100.9375 101.75 C-100.9375 102.41 -100.9375 103.07 -100.9375 103.75 C-101.55625 104.03875 -102.175 104.3275 -102.8125 104.625 C-105.07075765 105.68720042 -105.07075765 105.68720042 -106.9375 107.75 C-107.23129827 110.66502267 -107.23129827 110.66502267 -107.16455078 114.12744141 C-107.16484283 114.78122269 -107.16513489 115.43500397 -107.16543579 116.1085968 C-107.16404065 118.27305296 -107.1484712 120.43716636 -107.1328125 122.6015625 C-107.12908302 124.10085868 -107.12623574 125.6001573 -107.12423706 127.09945679 C-107.11659548 131.04836743 -107.0969426 134.99713129 -107.0748291 138.94598389 C-107.0543819 142.97438572 -107.04523776 147.00281124 -107.03515625 151.03125 C-107.01369711 158.93756741 -106.97955495 166.84376545 -106.9375 174.75 C-104.22887137 173.4929277 -101.52216763 172.2319673 -98.81640625 170.96875 C-98.05638306 170.61651367 -97.29635986 170.26427734 -96.51330566 169.90136719 C-91.15111406 167.39294234 -86.07519125 164.57610167 -81.00390625 161.51953125 C-77.5077663 159.50201355 -73.93606931 157.71209389 -70.3125 155.9375 C-64.41683136 153.04670225 -58.6580004 149.97326661 -52.9375 146.75 C-47.31415977 143.58540686 -41.65734999 140.55107856 -35.875 137.6875 C-34.91460815 137.19600464 -34.91460815 137.19600464 -33.93481445 136.69458008 C-30.43129376 134.91365661 -26.93322371 133.33759829 -23.265625 131.921875 C-15.23715064 128.86014422 -15.23715064 128.86014422 -9.92431641 122.54248047 C-8.57444005 117.65506339 -8.14230927 112.74972641 -8.05664062 107.69189453 C-7.9375 105.75 -7.9375 105.75 -6.9375 102.75 C-4.828125 101.94140625 -4.828125 101.94140625 -2.1875 101.3125 C3.76011338 99.65802837 6.81609194 97.88095571 10 92.4375 C11.32098913 87.85289065 10.75065932 86.10367403 9.0625 81.75 C8.4025 81.75 7.7425 81.75 7.0625 81.75 C7.0625 81.09 7.0625 80.43 7.0625 79.75 C2.58678663 76.76619108 -1.70145326 76.78369095 -6.9375 77.75 C-12.26265785 81.26097582 -13.89546664 87.01285865 -15.9375 92.75 C-19.29077639 94.98551759 -19.84493657 94.92283528 -23.625 94.375 C-24.43324219 94.26414062 -25.24148437 94.15328125 -26.07421875 94.0390625 C-26.68910156 93.94367188 -27.30398437 93.84828125 -27.9375 93.75 C-29.95023645 87.71179065 -29.77833163 81.0172304 -27.5 75.0625 C-24.15150774 68.4952106 -18.44362259 63.39373471 -11.5625 60.75 C-3.26836436 58.5247441 5.32594323 58.93104393 13.0625 62.75 C20.39749377 67.41998755 20.39749377 67.41998755 22.0625 70.75 C22.7225 70.75 23.3825 70.75 24.0625 70.75 C24.54358275 72.16601714 25.02228141 73.58284437 25.5 75 C25.76683594 75.78890625 26.03367187 76.5778125 26.30859375 77.390625 C29.17630063 86.36521027 28.22370762 94.68064658 26.0625 103.75 C25.4025 103.75 24.7425 103.75 24.0625 103.75 C23.629375 104.4925 23.19625 105.235 22.75 106 C19.50276732 111.29178659 14.36387857 113.83943921 9.0625 116.75 C9.0625 119.72 9.0625 122.69 9.0625 125.75 C9.99707031 126.21148437 10.93164062 126.67296875 11.89453125 127.1484375 C20.05318046 131.1934732 28.14798047 135.34311936 36.19604492 139.60375977 C41.10481169 142.19980357 46.02478685 144.77306796 50.95703125 147.32421875 C51.55399307 147.63307007 52.1509549 147.94192139 52.76600647 148.26013184 C55.72168515 149.78877947 58.67831747 151.31553595 61.63598633 152.84033203 C67.24946845 155.74170095 72.81001696 158.68004562 78.25341797 161.89135742 C80.18045209 162.96439162 80.18045209 162.96439162 83.0625 162.75 C83.0625 163.41 83.0625 164.07 83.0625 164.75 C84.3825 164.75 85.7025 164.75 87.0625 164.75 C87.0625 165.41 87.0625 166.07 87.0625 166.75 C88.4546875 167.3378125 88.4546875 167.3378125 89.875 167.9375 C94.9669595 170.14148247 100.01135309 172.45402413 105.0625 174.75 C105.0625 152.64 105.0625 130.53 105.0625 107.75 C104.4025 107.75 103.7425 107.75 103.0625 107.75 C103.0625 107.09 103.0625 106.43 103.0625 105.75 C100.00691577 102.72482091 100.00691577 102.72482091 96.0625 101.75 C96.0625 101.09 96.0625 100.43 96.0625 99.75 C94.44510845 98.45668139 92.76576111 97.24043466 91.0625 96.0625 C86.75137551 93.01086748 82.72236025 89.84460295 78.81640625 86.29296875 C75.39619877 82.95799914 75.39619877 82.95799914 71.0625 81.75 C71.0625 81.09 71.0625 80.43 71.0625 79.75 C68.00691577 76.72482091 68.00691577 76.72482091 64.0625 75.75 C64.0625 75.09 64.0625 74.43 64.0625 73.75 C63.4025 73.75 62.7425 73.75 62.0625 73.75 C62.0625 73.09 62.0625 72.43 62.0625 71.75 C60.65388963 70.77738808 59.23870755 69.81266588 57.7890625 68.90234375 C56.00616112 67.71239826 54.42915529 66.40561408 52.8125 65 C50.39670883 62.53892074 50.39670883 62.53892074 48.0625 62.75 C48.0625 62.09 48.0625 61.43 48.0625 60.75 C46.4125 60.09 44.7625 59.43 43.0625 58.75 C43.0625 58.09 43.0625 57.43 43.0625 56.75 C41.4125 56.09 39.7625 55.43 38.0625 54.75 C38.0625 54.09 38.0625 53.43 38.0625 52.75 C35.42565253 50.35179695 35.42565253 50.35179695 32.0625 49.75 C32.0625 49.09 32.0625 48.43 32.0625 47.75 C30.11874046 45.93371224 30.11874046 45.93371224 27.6875 44.125 C26.87539063 43.49335938 26.06328125 42.86171875 25.2265625 42.2109375 C23.22140121 40.56349192 23.22140121 40.56349192 21.0625 40.75 C21.0625 40.09 21.0625 39.43 21.0625 38.75 C20.4025 38.75 19.7425 38.75 19.0625 38.75 C19.0625 38.09 19.0625 37.43 19.0625 36.75 C17.34730923 35.3260131 15.5637088 33.9836784 13.75 32.6875 C12.76386719 31.97464844 11.77773438 31.26179688 10.76171875 30.52734375 C8.13330941 28.63048365 8.13330941 28.63048365 5.0625 27.75 C5.0625 27.09 5.0625 26.43 5.0625 25.75 C1.61048167 22.44709808 1.61048167 22.44709808 -2.9375 21.75 Z M-9.125 143.75 C-14.10636213 146.76679562 -19.14209994 149.33153552 -24.4375 151.75 C-30.47039131 154.51867331 -36.18043349 157.5505878 -41.87109375 160.98046875 C-45.3672337 162.99798645 -48.93893069 164.78790611 -52.5625 166.5625 C-59.23982447 169.83656367 -65.72994612 173.37832976 -72.20751953 177.02954102 C-77.21623115 179.83673406 -82.28334011 182.47076872 -87.4375 185 C-98.44612212 189.83052933 -98.44612212 189.83052933 -106.9375 197.75 C-106.62857159 201.04523632 -105.43646423 202.65087005 -102.9375 204.75 C-99.83050863 206.30349569 -96.54125325 205.89057435 -93.13113403 205.88371277 C-91.90773845 205.8871111 -91.90773845 205.8871111 -90.6596278 205.89057809 C-87.91125462 205.89693676 -85.16293052 205.89608753 -82.41455078 205.89526367 C-80.4503269 205.89825401 -78.48610361 205.90165625 -76.5218811 205.90544128 C-71.17479092 205.91429848 -65.82771672 205.91662013 -60.48061991 205.91725707 C-56.02221598 205.91820484 -51.56381581 205.92188163 -47.10541332 205.92542917 C-36.58931659 205.93358035 -26.07322843 205.93601281 -15.55712891 205.93530273 C-4.69741023 205.93470184 6.1622588 205.94525454 17.02196491 205.9610464 C26.33494421 205.9741081 35.64790726 205.9794872 44.96089566 205.97884732 C50.52779008 205.97859192 56.0946404 205.98146625 61.66152573 205.99202538 C66.89650076 206.00168327 72.13138932 206.00180144 77.36636734 205.99450874 C79.29008357 205.99346 81.21380513 205.99584285 83.13751221 206.0018692 C85.75916646 206.00955136 88.3805193 206.00496946 91.00216675 205.99723816 C92.14992783 206.0049535 92.14992783 206.0049535 93.320876 206.01282471 C98.53418715 206.02053247 98.53418715 206.02053247 103.0625 203.75 C104.14583333 200.33333333 104.14583333 200.33333333 104.0625 196.75 C98.93017503 190.28586919 89.53264781 186.91563926 82.29101562 183.34716797 C75.5836953 180.03477892 68.93326566 176.61465797 62.28921509 173.17770386 C61.03457709 172.52869247 59.77968296 171.88017594 58.52450562 171.23220825 C47.10142659 165.3344531 47.10142659 165.3344531 42.38037109 162.72705078 C41.49178658 162.23846336 41.49178658 162.23846336 40.58525085 161.74000549 C38.95249383 160.83871463 37.32412291 159.92949117 35.69604492 159.01977539 C33.09939724 157.53284617 33.09939724 157.53284617 30.0625 157.75 C30.0625 157.09 30.0625 156.43 30.0625 155.75 C28.98613281 155.25371094 27.90976562 154.75742187 26.80078125 154.24609375 C25.3250571 153.56089371 23.84983205 152.87461811 22.375 152.1875 C21.60712158 151.82978516 20.83924316 151.47207031 20.0480957 151.10351562 C14.11309649 148.30999519 8.39059224 145.26470592 2.69921875 142 C-2.23251419 139.66199327 -4.83370876 141.03843656 -9.125 143.75 Z M-106.9375 222.75 C-109.85274356 248.17313293 -109.85274356 248.17313293 -102.9375 255.75 C-102.2775 255.75 -101.6175 255.75 -100.9375 255.75 C-100.9375 256.41 -100.9375 257.07 -100.9375 257.75 C-96.7010516 258.90876902 -92.49907896 259.10497467 -88.12988281 259.30419922 C-87.21472523 259.34630964 -86.29956764 259.38842007 -85.35667801 259.43180656 C-72.58669166 259.95649645 -59.80708637 259.89608746 -47.02875423 259.8843255 C-43.32070286 259.88173937 -39.61265356 259.88415699 -35.90460205 259.88571167 C-29.67174834 259.88751826 -23.43890657 259.88516999 -17.20605469 259.88037109 C-10.09841338 259.87496029 -2.99080093 259.87667404 4.11683965 259.8821975 C10.30626516 259.88680709 16.49568222 259.88734088 22.6851089 259.88475883 C26.34282445 259.88323457 30.00052669 259.88289093 33.65824127 259.88629532 C49.23008947 259.89875074 64.78890409 259.75055484 80.35449219 259.30419922 C81.07216216 259.2847872 81.78983212 259.26537518 82.52924967 259.24537492 C84.55356307 259.18927273 86.57766449 259.12567311 88.60174561 259.06173706 C89.75536968 259.02592466 90.90899376 258.99011227 92.09757614 258.95321465 C94.57458613 258.78344141 96.69563029 258.46251583 99.0625 257.75 C99.0625 257.09 99.0625 256.43 99.0625 255.75 C99.68125 255.481875 100.3 255.21375 100.9375 254.9375 C103.3620233 253.79443152 103.3620233 253.79443152 105.0625 250.75 C105.0625 241.51 105.0625 232.27 105.0625 222.75 C35.1025 222.75 -34.8575 222.75 -106.9375 222.75 Z " fill="#141414" transform="translate(250.9375,109.25)"/>
<path d="M0 0 C0.66 0.33 1.32 0.66 2 1 C0.25904321 2.82200133 -1.49177132 4.63229575 -3.25 6.4375 C-3.98669922 7.2119043 -3.98669922 7.2119043 -4.73828125 8.00195312 C-9.30164195 12.65658104 -9.30164195 12.65658104 -13 13 C-13 12.34 -13 11.68 -13 11 C-12.34 11 -11.68 11 -11 11 C-11 10.34 -11 9.68 -11 9 C-9.35 8.34 -7.7 7.68 -6 7 C-6 6.34 -6 5.68 -6 5 C-4.04072937 3.2856382 -2.04119788 1.61594832 0 0 Z " fill="#939393" transform="translate(141,194)"/>
</svg>
